<?xml version="1.0" standalone="no"?>
<!DOCTYPE svg PUBLIC "-//W3C//DTD SVG 20010904//EN"
 "http://www.w3.org/TR/2001/REC-SVG-20010904/DTD/svg10.dtd">
<svg version="1.0" xmlns="http://www.w3.org/2000/svg"
 width="2000.000000pt" height="2000.000000pt" viewBox="0 0 2000.000000 2000.000000"
 preserveAspectRatio="xMidYMid meet">

<g transform="translate(0.000000,2000.000000) scale(0.100000,-0.100000)"
fill="#000000" stroke="none">
<path d="M8790 15479 c-185 -15 -361 -38 -505 -64 -1427 -260 -2658 -1159
-3343 -2442 -298 -557 -476 -1157 -537 -1808 -16 -177 -19 -600 -5 -781 129
-1662 1110 -3127 2598 -3878 513 -258 1030 -411 1632 -483 160 -19 684 -25
885 -10 978 72 1942 474 2715 1135 154 132 430 408 430 430 0 31 -232 714
-239 705 -4 -4 -25 -30 -47 -58 -68 -88 -136 -165 -144 -165 -5 0 -37 24 -72
53 -233 195 -529 393 -803 537 -66 35 -123 66 -128 70 -4 3 4 62 19 131 35
171 80 446 101 616 l18 142 290 3 c266 4 295 6 347 25 80 30 122 61 199 147
105 116 112 143 119 416 l5 225 33 -1 c17 -1 221 -2 451 -3 394 -1 420 -2 417
-18 -2 -10 -7 -54 -11 -98 -7 -87 -57 -386 -79 -478 -7 -31 -11 -59 -7 -61 35
-19 595 -196 601 -190 18 19 85 365 115 589 28 214 39 674 23 920 -114 1673
-1136 3185 -2653 3925 -506 246 -1060 405 -1590 455 -38 4 -81 9 -95 12 -48 9
-636 11 -740 2z m539 -662 c406 -143 799 -693 1075 -1506 30 -88 52 -162 48
-165 -21 -12 -226 -72 -347 -101 -357 -86 -563 -110 -970 -110 -343 1 -474 11
-745 61 -219 40 -580 137 -580 154 0 5 27 87 60 183 283 829 697 1385 1114
1498 101 27 244 22 345 -14z m-1608 -289 c-171 -272 -321 -594 -454 -976 l-53
-152 -129 76 c-210 122 -571 376 -582 410 -5 14 162 144 327 257 153 103 374
231 529 305 107 51 397 172 413 172 4 0 -19 -42 -51 -92z m2932 31 c253 -100
578 -273 786 -416 71 -50 271 -199 311 -234 l24 -21 -24 -19 c-277 -220 -677
-479 -699 -453 -4 5 -25 59 -45 119 -132 384 -325 792 -500 1058 -10 15 -15
27 -12 27 3 0 75 -27 159 -61z m-4318 -1359 c177 -130 413 -277 613 -380 75
-40 101 -58 97 -69 -16 -53 -78 -400 -105 -586 -17 -121 -33 -235 -36 -252
l-5 -33 -259 0 c-150 0 -281 -5 -312 -11 -134 -28 -268 -130 -329 -250 -47
-94 -60 -177 -58 -371 1 -93 -1 -171 -3 -174 -4 -3 -723 -7 -886 -4 -15 0 -15
-2 9 205 57 489 248 1057 506 1505 116 202 215 345 376 547 l89 111 101 -82
c56 -46 147 -116 202 -156z m6003 109 c100 -122 290 -400 367 -538 271 -482
445 -1013 504 -1536 7 -55 14 -115 16 -132 l4 -33 -412 -1 c-227 -1 -430 -2
-452 -3 l-40 -1 -5 225 c-6 242 -12 271 -74 367 -62 100 -198 191 -315 213
-30 5 -170 10 -312 10 l-259 0 0 29 c0 55 -60 447 -100 651 -22 113 -36 207
-32 211 4 3 60 34 125 68 267 139 556 332 797 529 41 34 80 61 85 59 6 -2 52
-55 103 -118z m-4528 -834 c464 -136 916 -193 1435 -182 458 10 811 64 1247
193 65 18 119 34 122 34 2 0 9 -28 15 -62 6 -35 18 -101 26 -148 15 -82 65
-407 65 -422 0 -5 -713 -8 -1585 -8 -1563 0 -1585 0 -1585 19 0 45 67 466 91
574 9 38 15 48 28 44 9 -3 72 -21 141 -42z m-1050 -1180 c38 -20 64 -65 88
-155 31 -114 173 -543 178 -538 2 3 45 130 94 284 117 365 121 374 160 402 84
57 151 11 194 -133 82 -272 180 -556 186 -544 4 8 47 136 94 285 48 149 95
293 105 320 20 54 67 94 108 94 60 0 122 -55 123 -107 0 -10 -75 -254 -167
-541 -155 -486 -170 -525 -198 -545 -19 -14 -45 -22 -72 -22 -78 0 -90 22
-193 340 -49 154 -97 300 -106 324 l-16 43 -105 -323 c-112 -346 -125 -371
-188 -383 -46 -9 -100 15 -119 53 -9 17 -89 258 -177 536 -148 468 -159 508
-149 540 24 71 96 103 160 70z m1825 -18 c21 -21 39 -54 50 -92 35 -116 187
-585 190 -585 2 0 49 141 105 313 56 171 108 324 116 339 17 33 62 58 103 58
47 0 95 -48 116 -117 68 -225 190 -591 196 -588 4 3 10 17 13 32 4 16 50 162
104 327 93 287 98 299 132 322 41 28 69 30 116 8 37 -18 64 -58 64 -95 0 -12
-74 -254 -165 -538 -178 -554 -177 -553 -249 -566 -68 -13 -122 38 -152 145
-30 105 -179 550 -184 550 -3 0 -20 -44 -37 -97 -170 -526 -178 -548 -201
-570 -51 -47 -139 -35 -174 25 -9 15 -88 256 -177 536 -179 563 -176 545 -110
601 46 38 101 35 144 -8z m1789 12 c36 -29 51 -60 91 -197 60 -204 162 -498
169 -482 3 8 46 141 95 296 114 354 121 371 166 389 19 8 46 15 59 15 38 0 92
-54 109 -108 94 -304 193 -600 198 -594 4 4 48 137 99 296 113 355 118 366
162 390 70 38 168 -14 168 -89 0 -44 -324 -1052 -346 -1076 -9 -11 -34 -24
-55 -31 -50 -15 -93 3 -123 51 -13 20 -67 172 -121 339 -55 166 -102 302 -105
302 -3 0 -52 -147 -110 -327 -118 -365 -119 -368 -206 -368 -86 0 -84 -4 -269
579 l-164 518 16 39 c8 22 27 48 41 59 33 27 92 26 126 -1z m-4433 -1049 c1
-106 7 -211 14 -246 39 -184 189 -335 373 -373 31 -6 161 -11 312 -11 l258 0
6 -27 c3 -16 10 -71 16 -123 23 -189 107 -675 126 -725 4 -10 -23 -28 -93 -63
-259 -131 -538 -313 -794 -518 l-126 -102 -60 72 c-456 546 -765 1218 -888
1931 -13 73 -45 327 -45 357 0 6 875 17 897 13 1 -1 3 -84 4 -185z m4779 -635
c0 -17 -54 -367 -71 -460 -11 -60 -23 -125 -26 -142 -3 -18 -7 -33 -9 -33 -2
0 -74 20 -159 44 -313 90 -638 150 -945 173 -240 18 -824 5 -968 -21 -9 -2
-42 -7 -72 -11 -181 -23 -437 -78 -659 -141 -85 -24 -156 -42 -159 -39 -12 11
-102 558 -102 615 l0 20 1585 0 c872 0 1585 -2 1585 -5z m-1260 -1056 c286
-27 580 -81 811 -148 74 -22 146 -44 161 -50 l27 -10 -48 -143 c-195 -575
-427 -995 -701 -1268 -210 -209 -400 -299 -610 -287 -137 8 -257 55 -390 153
-332 244 -639 750 -860 1417 -23 71 -40 130 -39 131 2 2 58 19 124 39 301 91
555 137 925 170 79 7 512 4 600 -4z m-2195 -606 c134 -388 291 -722 472 -1006
51 -80 62 -80 -132 -4 -250 98 -577 275 -815 440 -109 76 -290 218 -290 227 0
8 133 114 260 206 103 74 428 274 446 274 6 0 33 -62 59 -137z m3835 117 c70
-35 273 -161 366 -226 126 -87 299 -223 299 -234 0 -11 -167 -142 -298 -234
-238 -165 -552 -333 -826 -441 -78 -31 -144 -55 -146 -53 -2 2 28 53 66 113
141 225 330 636 443 965 20 58 38 111 41 118 6 16 9 15 55 -8z"/>
<path d="M12485 9596 c-55 -25 -95 -85 -95 -144 0 -30 979 -2974 1001 -3010
52 -84 206 -84 258 0 8 13 91 165 184 338 93 173 174 321 180 328 19 24 85 52
122 52 20 0 52 -9 73 -19 20 -11 231 -213 467 -450 299 -300 440 -434 463
-442 18 -6 51 -8 75 -4 38 6 62 27 284 248 241 239 256 258 257 322 0 62 -18
83 -459 525 -479 480 -466 465 -452 556 9 56 42 91 135 140 48 26 164 88 257
139 94 51 203 110 244 131 91 48 125 81 139 134 13 52 0 100 -39 145 -28 32
-102 57 -1517 529 -818 273 -1501 496 -1517 496 -17 -1 -43 -7 -60 -14z"/>
<path d="M9340 1370 c20 -13 40 -13 40 0 0 6 -12 10 -27 10 -22 0 -25 -2 -13
-10z"/>
</g>
</svg>
