<?xml version="1.0" standalone="no"?>
<!DOCTYPE svg PUBLIC "-//W3C//DTD SVG 20010904//EN"
 "http://www.w3.org/TR/2001/REC-SVG-20010904/DTD/svg10.dtd">
<svg version="1.0" xmlns="http://www.w3.org/2000/svg"
 width="216.000000pt" height="233.000000pt" viewBox="0 0 216.000000 233.000000"
 preserveAspectRatio="xMidYMid meet">

<g transform="translate(0.000000,233.000000) scale(0.100000,-0.100000)"
fill="#000000" stroke="none">
<path d="M825 2195 c-414 -91 -709 -436 -732 -856 -24 -424 238 -797 657 -935
80 -26 96 -28 260 -29 115 0 189 4 217 13 l43 13 0 74 0 75 -58 -39 c-55 -37
-110 -61 -138 -61 -11 0 -14 34 -14 170 l0 170 105 0 105 0 0 35 0 35 -105 0
-105 0 0 195 0 195 105 0 105 0 0 40 0 40 -105 0 -105 0 0 195 0 195 195 0
c182 0 195 -1 205 -19 18 -35 50 -184 56 -266 6 -80 7 -80 57 -132 l51 -53
118 0 118 0 0 -37 c0 -21 -6 -64 -14 -95 l-13 -57 32 -31 32 -31 19 73 c15 57
19 107 18 228 0 138 -3 164 -27 243 -103 336 -368 583 -699 651 -94 19 -298
20 -383 1z m155 -235 l0 -170 -185 0 c-102 0 -185 2 -185 5 0 11 43 91 72 133
69 100 207 202 275 202 l23 0 0 -170z m189 137 c63 -31 160 -129 209 -213 23
-38 42 -76 42 -82 0 -9 -47 -12 -180 -12 l-180 0 0 171 0 172 32 -7 c17 -3 52
-16 77 -29z m-479 -35 c0 -5 -10 -17 -22 -28 -28 -25 -103 -142 -128 -198
l-19 -46 -91 0 c-49 0 -90 4 -90 9 0 15 133 145 185 181 55 38 146 90 158 90
4 0 7 -4 7 -8z m713 -18 c29 -15 82 -49 119 -76 66 -49 168 -151 168 -169 0
-5 -40 -9 -89 -9 l-90 0 -24 54 c-23 49 -73 127 -128 199 -26 33 -22 34 44 1z
m-913 -331 c0 -5 -9 -42 -20 -83 -11 -41 -25 -126 -32 -187 l-12 -113 -129 0
-130 0 7 59 c12 108 66 265 108 319 11 13 208 18 208 5z m488 -190 l2 -193
-235 0 -235 0 0 41 c0 76 33 252 60 324 l10 25 197 -2 198 -3 3 -192z m808
123 c37 -81 74 -219 74 -278 l0 -38 -130 0 -130 0 0 48 c0 59 -24 211 -45 277
-8 28 -15 53 -15 58 0 4 48 7 106 7 l105 0 35 -74z m-1348 -508 c7 -62 21
-147 32 -188 11 -41 20 -79 20 -83 0 -4 -46 -6 -102 -5 l-103 3 -37 74 c-39
79 -63 163 -74 255 l-7 56 129 0 130 0 12 -112z m540 -80 l-3 -193 -200 0
-199 0 -18 58 c-23 77 -48 220 -48 280 l0 47 235 0 235 0 -2 -192z m-438 -313
c25 -59 85 -152 123 -192 17 -18 28 -35 25 -39 -9 -8 -96 39 -168 92 -64 47
-180 160 -180 176 0 4 41 8 90 8 l91 0 19 -45z m440 -125 c0 -170 0 -170 -22
-170 -60 0 -174 76 -245 163 -37 45 -103 154 -103 171 0 3 83 6 185 6 l185 0
0 -170z"/>
<path d="M1407 1233 c-4 -3 -7 -199 -7 -434 0 -413 1 -429 19 -439 11 -5 23
-10 26 -10 4 0 40 32 80 71 l74 71 38 -83 c73 -162 75 -164 108 -163 48 3 189
75 193 99 1 11 -22 74 -52 140 l-56 120 108 5 c114 5 132 11 132 40 0 11 -117
128 -305 304 -295 277 -332 306 -358 279z m343 -373 c91 -85 167 -158 168
-162 2 -5 -34 -8 -80 -8 -85 0 -108 -8 -108 -39 0 -9 27 -74 60 -145 33 -72
57 -133 53 -137 -5 -5 -25 -15 -46 -24 l-37 -15 -45 97 c-91 200 -93 202 -170
124 -28 -28 -53 -51 -57 -51 -5 0 -8 138 -8 307 l0 307 53 -50 c28 -28 126
-120 217 -204z"/>
</g>
</svg>
